<svg width="20" height="21" viewBox="0 0 20 21" fill="none" xmlns="http://www.w3.org/2000/svg">
<g id="Icon/heart">
<path id="Vector" d="M10.0834 15.9583L10.0001 16.0417L9.90841 15.9583C5.95008 12.3667 3.33341 9.99167 3.33341 7.58333C3.33341 5.91667 4.58341 4.66667 6.25008 4.66667C7.53341 4.66667 8.78341 5.5 9.22508 6.63333H10.7751C11.2167 5.5 12.4667 4.66667 13.7501 4.66667C15.4167 4.66667 16.6667 5.91667 16.6667 7.58333C16.6667 9.99167 14.0501 12.3667 10.0834 15.9583ZM13.7501 3C12.3001 3 10.9084 3.675 10.0001 4.73333C9.09175 3.675 7.70008 3 6.25008 3C3.68341 3 1.66675 5.00833 1.66675 7.58333C1.66675 10.725 4.50008 13.3 8.79175 17.1917L10.0001 18.2917L11.2084 17.1917C15.5001 13.3 18.3334 10.725 18.3334 7.58333C18.3334 5.00833 16.3167 3 13.7501 3Z" fill="black"/>
</g>
</svg>
