<svg width="18" height="18" viewBox="0 0 18 18" fill="none" xmlns="http://www.w3.org/2000/svg">
<g id="Icon/close">
<path id="Vector" d="M4.66863 3.60824C4.52718 3.47162 4.33773 3.39602 4.14108 3.39773C3.94444 3.39944 3.75633 3.47832 3.61727 3.61738C3.47821 3.75643 3.39934 3.94454 3.39763 4.14119C3.39592 4.33784 3.47152 4.52729 3.60813 4.66874L7.93938 8.99999L3.60738 13.3312C3.53575 13.4004 3.47861 13.4832 3.43931 13.5747C3.4 13.6662 3.37931 13.7646 3.37845 13.8642C3.37758 13.9638 3.39656 14.0625 3.43427 14.1547C3.47198 14.2469 3.52767 14.3306 3.59809 14.401C3.66851 14.4715 3.75225 14.5271 3.84442 14.5649C3.93659 14.6026 4.03535 14.6215 4.13493 14.6207C4.23452 14.6198 4.33293 14.5991 4.42444 14.5598C4.51594 14.5205 4.5987 14.4634 4.66788 14.3917L8.99988 10.0605L13.3311 14.3917C13.4726 14.5284 13.662 14.604 13.8587 14.6022C14.0553 14.6005 14.2434 14.5217 14.3825 14.3826C14.5216 14.2435 14.6004 14.0554 14.6021 13.8588C14.6038 13.6621 14.5283 13.4727 14.3916 13.3312L10.0604 8.99999L14.3916 4.66874C14.5283 4.52729 14.6038 4.33784 14.6021 4.14119C14.6004 3.94454 14.5216 3.75643 14.3825 3.61738C14.2434 3.47832 14.0553 3.39944 13.8587 3.39773C13.662 3.39602 13.4726 3.47162 13.3311 3.60824L8.99988 7.93949L4.66863 3.60824Z" fill="white"/>
</g>
</svg>
