<?xml version="1.0" standalone="no"?>
<!DOCTYPE svg PUBLIC "-//W3C//DTD SVG 20010904//EN"
 "http://www.w3.org/TR/2001/REC-SVG-20010904/DTD/svg10.dtd">
<svg version="1.0" xmlns="http://www.w3.org/2000/svg"
 width="204.000000pt" height="192.000000pt" viewBox="0 0 204.000000 192.000000"
 preserveAspectRatio="xMidYMid meet">

<g transform="translate(0.000000,192.000000) scale(0.100000,-0.100000)"
fill="#000000" stroke="none">
<path d="M735 1856 c-143 -47 -246 -108 -324 -190 -28 -29 -32 -38 -22 -50 10
-12 9 -20 -4 -40 -11 -17 -15 -35 -10 -55 5 -24 3 -30 -15 -36 -33 -11 -52
-48 -44 -89 4 -23 2 -36 -4 -36 -35 0 -58 -90 -31 -117 9 -9 6 -19 -10 -39
-25 -32 -28 -99 -5 -125 14 -16 14 -20 -1 -43 -20 -31 -14 -70 17 -103 17 -18
19 -25 9 -37 -14 -16 -18 -67 -7 -85 4 -6 -3 -26 -16 -44 -17 -24 -24 -49 -26
-103 -5 -82 15 -133 70 -179 27 -23 39 -26 77 -22 28 3 51 12 61 25 16 19 17
19 27 -9 12 -32 55 -53 89 -45 16 4 23 1 27 -14 9 -34 92 -53 127 -30 11 7 2
8 -28 4 -36 -6 -47 -3 -67 16 -14 13 -25 32 -25 42 0 10 -4 18 -10 18 -5 0
-10 -4 -10 -9 0 -13 -33 -19 -57 -10 -12 4 -27 24 -34 43 -11 30 -18 36 -41
36 -31 0 -67 30 -69 58 -2 25 -2 25 6 50 5 18 2 22 -14 22 -27 0 -52 38 -44
68 4 17 2 23 -6 18 -21 -13 -13 -65 14 -88 18 -16 25 -32 25 -59 0 -29 7 -43
31 -63 17 -14 35 -26 41 -26 6 0 6 -6 -2 -15 -19 -23 -82 -19 -115 7 -61 48
-83 163 -45 238 24 48 34 54 54 35 9 -9 17 -11 21 -5 3 5 -5 15 -20 22 -33 15
-42 51 -22 94 16 32 15 34 -2 43 -10 6 -24 24 -31 41 -12 28 -11 34 9 60 l21
30 -20 20 c-29 29 -27 87 5 120 25 27 26 27 8 58 -22 39 -9 85 26 90 23 4 24
16 5 66 -4 11 6 29 32 53 31 29 38 42 35 68 -4 51 15 50 45 -2 75 -132 128
-213 139 -213 16 0 245 113 318 157 34 20 57 41 57 51 -1 9 -25 84 -54 165
l-53 149 32 -6 c22 -5 36 -2 45 9 20 24 78 30 115 12 25 -12 35 -13 38 -4 7
21 84 14 110 -11 16 -15 27 -20 32 -13 3 6 28 11 54 11 37 0 54 -6 75 -25 20
-18 34 -23 51 -19 36 9 110 -30 125 -66 10 -25 18 -30 47 -30 41 0 83 -37 83
-74 0 -24 33 -46 47 -32 4 3 -1 6 -11 6 -10 0 -19 11 -22 30 -9 41 -50 79 -94
86 -27 4 -41 13 -49 30 -14 32 -69 64 -109 64 -19 0 -45 9 -59 20 -32 25 -88
35 -119 22 -19 -9 -30 -8 -59 9 -26 15 -44 19 -68 15 -36 -7 -34 -7 -103 0
-39 4 -58 2 -77 -11 -26 -17 -97 -13 -97 6 0 13 -18 11 -95 -15z"/>
<path d="M1470 1630 c-11 -7 -6 -8 16 -4 24 5 37 1 53 -15 12 -12 21 -28 21
-37 0 -9 6 -14 13 -11 18 7 47 -11 57 -36 7 -17 9 -18 9 -4 1 21 -33 57 -54
57 -8 0 -15 4 -15 10 0 16 -43 50 -64 50 -12 0 -28 -5 -36 -10z"/>
<path d="M1719 1563 c6 -12 11 -35 11 -51 0 -20 8 -35 24 -45 28 -19 39 -56
27 -89 -7 -19 -4 -26 20 -40 34 -20 39 -60 13 -96 -15 -22 -15 -25 5 -46 25
-27 28 -91 6 -124 -15 -20 -14 -24 5 -44 27 -29 26 -73 -3 -102 -18 -18 -22
-31 -19 -61 3 -27 -1 -45 -17 -66 -12 -17 -20 -38 -18 -47 4 -14 6 -13 12 6
11 33 32 27 55 -18 61 -119 -25 -306 -126 -273 -16 5 -33 19 -39 31 -13 29
-55 30 -55 2 0 -11 -9 -29 -21 -41 -18 -18 -18 -20 -3 -17 17 3 28 18 38 50 4
15 9 13 35 -12 83 -83 205 18 206 171 0 54 -4 72 -26 105 -33 50 -37 136 -7
166 22 22 23 69 3 108 -14 27 -14 33 1 61 18 36 13 82 -12 110 -12 13 -13 22
-5 38 19 35 13 88 -11 108 -17 13 -23 29 -24 62 0 35 -5 48 -27 65 -17 13 -27
32 -27 47 0 14 -7 34 -16 45 -15 18 -15 18 -5 -3z"/>
<path d="M624 1300 c-48 -24 -70 -61 -54 -91 14 -24 48 -24 80 1 32 25 87 25
125 0 37 -25 61 -25 73 -2 40 75 -125 143 -224 92z"/>
<path d="M1354 1300 c-44 -14 -84 -54 -84 -85 0 -36 25 -42 76 -16 58 27 86
27 133 -4 22 -15 45 -23 55 -19 21 8 31 47 17 72 -23 43 -132 72 -197 52z"/>
<path d="M695 1083 c-40 -10 -65 -44 -65 -89 0 -24 5 -46 10 -49 6 -3 10 1 10
9 0 9 9 16 20 16 13 0 20 -7 20 -20 0 -11 -7 -20 -15 -20 -20 0 -19 -16 1 -24
37 -14 76 -6 105 23 32 33 37 70 14 111 l-14 25 -1 -26 c0 -32 -21 -52 -51
-47 -32 5 -44 44 -19 66 20 16 27 33 13 31 -5 -1 -17 -3 -28 -6z"/>
<path d="M1353 1074 c-37 -18 -58 -62 -49 -100 5 -20 10 -24 19 -15 18 18 47
13 47 -8 0 -11 -6 -22 -12 -24 -25 -10 16 -28 52 -23 52 8 84 49 77 99 -10 71
-71 103 -134 71z m105 -41 c7 -45 -63 -58 -79 -15 -6 17 -3 28 12 43 18 18 23
19 42 6 12 -8 23 -23 25 -34z"/>
<path d="M740 1076 c0 -2 7 -7 16 -10 8 -3 12 -2 9 4 -6 10 -25 14 -25 6z"/>
<path d="M1050 770 l-75 -6 75 -2 c41 -1 82 3 90 8 13 9 13 10 0 8 -8 -1 -49
-4 -90 -8z"/>
<path d="M1767 702 c-3 -16 -17 -34 -31 -42 -23 -12 -25 -18 -20 -52 6 -32 3
-43 -16 -63 -13 -14 -19 -25 -12 -25 22 0 54 54 49 85 -4 22 1 37 18 55 25 28
42 70 27 70 -5 0 -12 -13 -15 -28z"/>
<path d="M1492 420 c-24 -31 -50 -37 -83 -19 -17 8 -24 6 -40 -15 -22 -28 -64
-35 -98 -16 -14 7 -23 5 -36 -10 -22 -24 -77 -27 -99 -5 -20 20 -29 19 -44 -5
-15 -25 -44 -26 -66 -1 -17 19 -18 19 -52 -1 -36 -21 -71 -19 -96 5 -7 7 -35
13 -63 13 -27 0 -57 3 -65 7 -13 6 -15 -6 -12 -85 4 -127 15 -142 107 -146 93
-4 105 7 105 105 0 68 2 74 24 84 17 8 29 8 44 0 29 -16 63 -14 83 5 17 15 20
15 44 0 23 -15 25 -22 25 -90 0 -47 5 -77 13 -84 25 -21 110 -24 147 -5 41 21
48 41 49 146 l1 77 46 -2 c39 -1 50 3 75 29 20 23 35 30 51 26 18 -4 20 -3 8
6 -25 18 -45 12 -68 -19z m-152 -73 c19 5 20 1 20 -71 0 -97 -15 -116 -92
-116 -76 0 -83 7 -85 90 -2 59 1 72 15 76 9 3 28 11 42 18 15 8 35 10 52 5 15
-4 36 -5 48 -2z m-480 -8 c0 -4 16 -11 35 -15 31 -5 35 -10 36 -38 2 -75 -3
-112 -19 -123 -19 -15 -96 -17 -122 -3 -25 13 -40 62 -40 129 l0 56 55 1 c30
1 55 -2 55 -7z"/>
</g>
</svg>
